# xmcd CD database file
#
# Track frame offsets:
#	150
#	23848
#	46197
#	68986
#	89910
#	111794
#	139901
#	159912
#	183250
#	208511
#	229375
#
# Disc length: 3395 seconds
#
# Revision: 0
# Processed by: cddbd v1.5.2PL0 Copyright (c) Steve Scherf et al.
# Submitted via: CDex 1.51
#
DISCID=970d410b
DTITLE=No logo - Off the cuff
DYEAR=2006
DGENRE=Jazz
TTITLE0=Four O'Zone
TTITLE1=Graffiti
TTITLE2=Roma
TTITLE3=Duffer
TTITLE4=30
TTITLE5=Off the cuff
TTITLE6=Safe and Sound
TTITLE7=Trocadéro
TTITLE8=Immobile
TTITLE9=Tribalistic
TTITLE10=Loughborough's Spaceships
EXTD=YEAR: 2006
EXTT0=
EXTT1=
EXTT2=
EXTT3=
EXTT4=
EXTT5=
EXTT6=
EXTT7=
EXTT8=
EXTT9=
EXTT10=
PLAYORDER=
